<mxfile host="Electron" agent="Mozilla/5.0 (Windows NT 10.0; Win64; x64) AppleWebKit/537.36 (KHTML, like Gecko) draw.io/24.7.17 Chrome/128.0.6613.36 Electron/32.0.1 Safari/537.36" version="24.7.17">
  <diagram name="Seite-1" id="_-sck4_l5p5e1OC5Yd3Q">
    <mxGraphModel dx="909" dy="626" grid="1" gridSize="10" guides="1" tooltips="1" connect="1" arrows="1" fold="1" page="1" pageScale="1" pageWidth="827" pageHeight="1169" math="0" shadow="0">
      <root>
        <mxCell id="0" />
        <mxCell id="1" parent="0" />
        <mxCell id="38DfvZ9e4yOvHzWPWQ-h-1" value="" style="swimlane;startSize=0;" vertex="1" parent="1">
          <mxGeometry x="280" y="210" width="240" height="240" as="geometry" />
        </mxCell>
        <mxCell id="38DfvZ9e4yOvHzWPWQ-h-2" value="Central Warehouse Service" style="text;html=1;align=center;verticalAlign=middle;resizable=0;points=[];autosize=1;strokeColor=none;fillColor=none;" vertex="1" parent="38DfvZ9e4yOvHzWPWQ-h-1">
          <mxGeometry x="10" y="10" width="170" height="30" as="geometry" />
        </mxCell>
        <mxCell id="38DfvZ9e4yOvHzWPWQ-h-5" value="" style="swimlane;startSize=0;" vertex="1" parent="38DfvZ9e4yOvHzWPWQ-h-1">
          <mxGeometry x="30" y="110" width="165" height="90" as="geometry" />
        </mxCell>
        <mxCell id="38DfvZ9e4yOvHzWPWQ-h-8" value="Provides restock from&lt;br&gt;Central Warehouse&lt;br&gt;functionality via JSON API" style="text;html=1;align=center;verticalAlign=middle;resizable=0;points=[];autosize=1;strokeColor=none;fillColor=none;" vertex="1" parent="38DfvZ9e4yOvHzWPWQ-h-5">
          <mxGeometry x="4" y="20" width="160" height="60" as="geometry" />
        </mxCell>
        <mxCell id="38DfvZ9e4yOvHzWPWQ-h-7" value="&lt;b&gt;API Application&lt;/b&gt;" style="text;html=1;align=center;verticalAlign=middle;resizable=0;points=[];autosize=1;strokeColor=none;fillColor=none;" vertex="1" parent="38DfvZ9e4yOvHzWPWQ-h-5">
          <mxGeometry x="22.5" width="110" height="30" as="geometry" />
        </mxCell>
        <mxCell id="38DfvZ9e4yOvHzWPWQ-h-3" value="RabbitMQ Bus" style="shape=cube;whiteSpace=wrap;html=1;boundedLbl=1;backgroundOutline=1;darkOpacity=0.05;darkOpacity2=0.1;" vertex="1" parent="1">
          <mxGeometry x="200" y="60" width="380" height="80" as="geometry" />
        </mxCell>
        <mxCell id="38DfvZ9e4yOvHzWPWQ-h-10" value="" style="endArrow=classic;html=1;rounded=0;exitX=0;exitY=0;exitDx=200;exitDy=80;exitPerimeter=0;entryX=0.5;entryY=0;entryDx=0;entryDy=0;" edge="1" parent="1" source="38DfvZ9e4yOvHzWPWQ-h-3" target="38DfvZ9e4yOvHzWPWQ-h-1">
          <mxGeometry width="50" height="50" relative="1" as="geometry">
            <mxPoint x="420" y="300" as="sourcePoint" />
            <mxPoint x="470" y="250" as="targetPoint" />
          </mxGeometry>
        </mxCell>
        <mxCell id="38DfvZ9e4yOvHzWPWQ-h-11" value="restock articles for store&amp;nbsp;" style="edgeLabel;html=1;align=center;verticalAlign=middle;resizable=0;points=[];" vertex="1" connectable="0" parent="38DfvZ9e4yOvHzWPWQ-h-10">
          <mxGeometry x="-0.0558" y="1" relative="1" as="geometry">
            <mxPoint x="42" as="offset" />
          </mxGeometry>
        </mxCell>
      </root>
    </mxGraphModel>
  </diagram>
</mxfile>
